<svg width="27" height="30" viewBox="0 0 27 30" fill="none" xmlns="http://www.w3.org/2000/svg">
<path d="M0 25.605V23.4493C0.0399779 22.6639 0.293881 21.9044 0.734257 21.2529C1.17463 20.6014 1.78473 20.0827 2.49857 19.7529C9.35932 16.9971 17.0192 16.9971 23.88 19.7529C24.5938 20.0827 25.2039 20.6014 25.6443 21.2529C26.0847 21.9044 26.3386 22.6639 26.3786 23.4493V25.605C26.3783 26.1828 26.2641 26.7549 26.0426 27.2885C25.8211 27.8222 25.4966 28.307 25.0876 28.7151C24.6787 29.1233 24.1933 29.4469 23.6592 29.6673C23.1251 29.8878 22.5528 30.0008 21.975 30H4.40357C3.82577 30.0008 3.25347 29.8878 2.71938 29.6673C2.18529 29.4469 1.69989 29.1233 1.29092 28.7151C0.881958 28.307 0.557447 27.8222 0.335942 27.2885C0.114437 26.7549 0.000280962 26.1828 0 25.605ZM13.1893 3.13428e-07C11.7397 -0.00042353 10.3226 0.429029 9.11717 1.23405C7.91171 2.03906 6.97205 3.18348 6.41704 4.52256C5.86203 5.86165 5.71659 7.33525 5.99913 8.75699C6.28166 10.1787 6.97947 11.4848 8.0043 12.5099C9.02914 13.535 10.335 14.2332 11.7566 14.5162C13.1783 14.7991 14.6519 14.6541 15.9912 14.0995C17.3304 13.5449 18.4751 12.6056 19.2805 11.4003C20.0858 10.1951 20.5157 8.77812 20.5157 7.32857C20.516 6.36627 20.3267 5.41334 19.9586 4.52421C19.5906 3.63508 19.051 2.82717 18.3706 2.14662C17.6903 1.46607 16.8825 0.926218 15.9935 0.557896C15.1045 0.189575 14.1516 2.72267e-07 13.1893 3.13428e-07Z" fill="#444A58"/>
</svg>
